<svg width="155" height="74" viewBox="0 0 155 74" fill="none" xmlns="http://www.w3.org/2000/svg">
<path d="M7.08 36H2.4V8C6.88 8 11.88 8 16.36 8C21.08 8 21.84 11.76 19.8 14.6C18.4 16.44 17.16 17.88 15.92 19.36C14.36 21.24 13.68 23.4 16 22.92C17.2 22.72 18.36 22.08 19.52 21.8C21.36 21.4 22.52 21.64 23.24 22.44C24.6 23.92 24 27.16 22.04 30.32C20.52 32.72 18.44 34.96 16.92 36H9.48C12.4 34.2 19.4 28.92 21.12 26.04C21.8 25 22.08 24 21.84 23.24C21.68 22.56 21 22.2 19.76 22.44C18.52 22.64 17.44 23.28 16.24 23.68C11 25.2 8.52 21.6 12.36 17C13.8 15.28 14.56 14.32 15.6 12.96C17.28 10.8 17.12 8.76 14.48 8.76H9.72C8.28 8.76 7.08 10 7.08 11.4V36ZM27.2438 36V8C32.8038 8 38.9238 8 44.5238 8L45.4037 13.4C41.2838 13.76 37.6038 8.76 34.5638 8.76C33.1238 8.76 31.9238 10 31.9238 11.4V18.16C33.0038 17.04 35.1237 17.6 36.9238 18C38.8038 18.4 40.5238 18.56 42.3638 17.72L43.3638 22.96C39.6438 23.12 38.7638 22.28 35.7638 19.8C34.5638 18.84 32.8438 17.64 31.9238 19.12V35.28H32.4838C37.7238 35.28 38.3638 30 46.3238 30.52L45.0838 36C40.1638 34.32 39.3638 36 33.4838 36H27.2438ZM49.6647 36V12C49.6647 9.36 50.4247 8 52.3047 8C59.3447 8 61.5047 25.12 66.4247 28.92C67.3447 29.6 68.1047 29.16 68.1047 28.08V24.4C68.1047 18.2 63.5047 13.52 63.5047 8H68.8247V36C58.6647 36 58.6647 19.64 54.0247 11.84C52.6247 9.52 50.3847 9.24 50.3847 12.36V14.56C50.3847 20.76 54.9847 25.32 54.9847 36H49.6647ZM73.65 36V8C79.21 8 85.33 8 90.93 8L91.81 13.4C87.69 13.76 84.01 8.76 80.97 8.76C79.53 8.76 78.33 10 78.33 11.4V18.16C79.41 17.04 81.53 17.6 83.33 18C85.21 18.4 86.93 18.56 88.77 17.72L89.77 22.96C86.05 23.12 85.17 22.28 82.17 19.8C80.97 18.84 79.25 17.64 78.33 19.12V35.28H78.89C84.13 35.28 84.77 30 92.73 30.52L91.49 36C86.57 34.32 85.77 36 79.89 36H73.65ZM106.751 8L116.391 36H111.351C109.871 31.56 105.391 28.4 100.791 28.4H98.6309C98.9509 30.84 99.8309 33.04 100.791 36H94.9509C93.1109 31.08 96.3109 25.04 98.3909 20.28L101.991 12C102.471 10.84 101.671 9.12 100.711 8H106.751ZM108.511 27.68L104.351 15.56C103.911 14.12 102.431 13.2 101.391 15.64L101.111 16.24C98.9109 21.4 98.3109 24.68 98.5509 27.68H108.511ZM147.885 8.04H152.565V36H147.885V22.96C147.885 21.88 147.685 20.96 147.165 20.48C146.445 19.76 145.605 19.76 144.845 20.16C143.525 20.8 142.285 22.28 141.485 23.04C140.645 23.8 139.645 24.36 137.605 24.36V36H132.925C132.925 28.76 132.925 21.48 132.925 14.24C132.925 11.16 131.325 8.76 128.005 8.76H126.765V36H122.125V8.76H120.845C117.885 8.76 118.885 14.48 113.485 14.48L113.965 8.04H132.325C136.125 8.04 137.605 9.76 137.605 13.36C137.605 16.04 137.605 18.72 137.605 21.44C140.045 22.08 142.005 18.36 145.125 18.52C146.365 18.56 147.365 19.16 147.885 20.76V8.04Z" fill="#D01C44"/>
<path d="M39.895 49.203C42.535 49.203 43.591 51.051 43.591 53.097V55.143C43.657 55.044 43.723 54.879 43.822 54.714C45.109 51.942 45.835 49.203 48.508 49.203C51.148 49.203 52.204 51.051 52.204 53.097V66H48.772C48.772 65.736 48.772 54.648 48.772 54.186C48.805 50.787 46.594 51.051 45.043 53.559C44.218 54.912 43.591 56.76 43.591 58.674V66H40.159C40.159 65.736 40.159 54.648 40.159 54.186C40.192 50.787 37.981 51.051 36.43 53.559C35.605 54.912 34.978 56.76 34.978 58.674V66H31.579V55.044C31.579 53.724 31.678 50.589 30.391 49.203H34.615C35.242 50.523 34.813 52.998 34.186 54.351C33.955 54.846 34.021 55.308 34.252 55.44C34.483 55.605 34.846 55.44 35.176 54.714C36.496 51.942 37.222 49.203 39.895 49.203ZM58.6797 66C56.9967 66.066 55.7757 65.241 55.2147 64.086C54.6867 62.964 54.8187 61.578 55.6437 60.324C56.2047 59.499 57.0627 58.74 58.3497 58.245C59.6697 57.651 61.1877 57.09 62.1117 56.661C64.0587 55.737 65.0157 53.856 65.0157 52.239C64.9497 50.886 64.5867 49.698 63.2337 49.731C61.3197 49.764 60.3297 54.087 56.6007 54.087L55.3467 50.952C58.7787 50.688 60.4947 49.203 63.9927 49.203C66.5337 49.203 68.2497 50.226 68.2497 51.942C68.2497 54.582 64.6197 56.133 62.6397 57.057C61.3527 57.684 59.6367 58.674 58.7457 59.796C58.0857 60.687 58.0527 61.677 58.4817 62.403C58.8447 62.865 59.3727 63.195 60.0657 63.228C60.7257 63.261 61.4187 62.997 62.1777 62.37C62.8707 61.842 63.3987 61.083 63.7287 60.423C64.2567 59.268 65.0487 57.189 66.7317 57.453C67.8207 57.585 68.3157 58.674 68.1177 60.258C67.8207 62.832 68.3817 64.383 69.3387 66H65.0157C64.3887 64.713 64.9167 62.238 65.4447 60.852C65.6757 60.357 65.5437 59.994 65.2797 59.829C65.0157 59.697 64.6197 59.829 64.3557 60.423C63.2007 62.997 62.0787 65.967 58.6797 66ZM73.6741 43.527C74.8291 43.527 75.8191 44.385 75.8191 45.441C75.8191 46.53 74.8291 47.388 73.6741 47.388C72.5191 47.388 71.5621 46.53 71.5621 45.441C71.5621 44.385 72.5191 43.527 73.6741 43.527ZM71.9911 55.044C71.9911 53.724 72.1231 50.589 70.8361 49.203H75.4231V66H71.9911C71.9911 60.258 71.9911 60.753 71.9911 55.044ZM78.9443 48.741C78.9443 47.421 79.0433 44.352 77.7563 42.9H82.3433V66H78.9443C78.9443 60.258 78.9443 54.516 78.9443 48.741ZM87.9183 43.527C89.0733 43.527 90.0633 44.385 90.0633 45.441C90.0633 46.53 89.0733 47.388 87.9183 47.388C86.7633 47.388 85.8063 46.53 85.8063 45.441C85.8063 44.385 86.7633 43.527 87.9183 43.527ZM86.2353 55.044C86.2353 53.724 86.3673 50.589 85.0803 49.203H89.6673V66H86.2353C86.2353 60.258 86.2353 60.753 86.2353 55.044ZM115.606 64.02C116.596 64.35 117.586 64.086 118.609 63.129C119.566 62.238 120.82 60.225 122.338 60.588C123.229 60.819 123.262 61.842 123.262 62.601V63.03C123.262 69.531 118.675 72.666 112.735 72.666C106.861 72.666 102.736 68.805 102.736 64.218C102.736 60.885 102.736 57.552 102.736 54.219C102.736 48.213 96.4663 53.196 96.4663 58.674V66H93.0673V55.044C93.0673 53.724 93.1663 50.589 91.8793 49.203H96.1033C96.7633 50.523 96.3013 52.998 95.6743 54.351C95.4433 54.879 95.5093 55.308 95.7403 55.44C95.9713 55.605 96.3673 55.44 96.6643 54.714C97.8523 52.272 99.3373 49.236 102.439 49.203C105.079 49.17 106.135 51.084 106.135 53.163V62.931C106.135 68.508 110.59 70.818 114.88 70.653C117.883 70.488 120.787 69.102 122.008 66.528C122.272 65.967 122.437 65.34 122.437 64.746C122.437 64.02 122.206 63.426 121.843 62.997C121.249 62.37 120.292 62.337 119.335 63.393C119.071 63.69 118.807 63.954 118.576 64.185C117.619 65.109 116.398 66.033 114.319 66.033C112.603 66.033 111.151 65.109 110.326 63.822C109.303 62.304 108.94 60.192 108.973 58.41C109.039 56.265 109.732 53.79 111.052 51.942C112.207 50.325 113.857 49.203 116.101 49.203C119.104 49.203 118.741 52.899 119.599 54.813C119.863 55.374 120.226 55.539 120.49 55.374C120.754 55.209 120.919 54.846 120.688 54.351C120.16 52.965 119.632 50.523 120.226 49.203H124.549C123.625 50.82 123.064 52.404 123.361 54.945C123.592 56.529 123.064 57.618 121.975 57.783C120.259 58.047 119.137 55.638 118.774 54.252C118.576 53.526 118.246 52.338 117.685 51.48C116.266 49.5 114.319 51.381 113.626 52.899C113.032 54.021 112.636 55.77 112.57 57.585C112.471 59.136 112.669 61.281 113.692 62.568C114.253 63.294 114.913 63.789 115.606 64.02Z" fill="#D01C44" fill-opacity="0.66"/>
</svg>
